<svg fill="#5A869C"
                                xmlns="http://www.w3.org/2000/svg" width="80" height="80" viewBox="0 0 595.017 595.017"><path d="M368.294 427.216H226.72c-14.697 0-26.656 9.7-26.656 21.622s11.958 21.622 26.656 21.622h141.575c14.697 0 26.654-9.7 26.654-21.622s-11.955-21.622-26.655-21.622zM394.949 510.644c0-11.922-11.957-21.622-26.654-21.622H226.72c-14.697 0-26.656 9.7-26.656 21.622s11.958 21.622 26.656 21.622h141.575c14.699 0 26.654-9.698 26.654-21.622zM246.717 551.772c-14.697 0-26.655 9.701-26.655 21.622 0 11.922 11.958 21.622 26.655 21.622H348.3c14.697 0 26.654-9.7 26.654-21.622 0-11.921-11.957-21.622-26.654-21.622H246.717zM404.375 398.06c2.424-4.039 3.041-10.195 3.586-15.63.141-1.414.273-2.735.432-3.88 6.07-44 20.875-70.044 35.189-95.23 16.32-28.712 31.732-55.833 31.732-105.515C475.312 79.762 395.548 0 297.507 0c-98.042 0-177.804 79.762-177.804 177.804 0 49.673 15.407 76.791 31.72 105.5 15.297 26.925 31.114 54.762 36.27 104.361.125 11.242 9.318 20.364 20.566 20.364h178.499c7.175.003 13.925-3.818 17.617-9.969zm-136.507-36.87c15.141-92.479 37.642-127.645 44.177-136.223 2.916-3.828 2.66-6.386 1.932-7.861-.756-1.527-2.326-2.439-4.201-2.439-1.23 0-2.592.361-4.162 1.105-9.63 4.565-41.329 23.449-44.93 74.704-.003.031-.003.064-.006.095-8.651-14.122-26.989-50.521-12.604-86.24 13.329-33.097 50.942-57.898 111.798-73.719a5.766 5.766 0 0 1 1.449-.193c2.555 0 4.477 1.882 4.779 4.682 2.824 26.215 11.424 105.989-19.85 143.064-9.74 11.549-22.742 17.901-38.648 18.89-7.014.435-12.3 5.811-12.3 12.509v51.022a6.384 6.384 0 0 1-6.377 6.377h-16.071c-1.634 0-3.045-.603-3.972-1.691-.91-1.068-1.271-2.518-1.014-4.082z"/></svg>