<svg  fill="#5A869C"
                                xmlns="http://www.w3.org/2000/svg" width="80" height="80" version="1.1" viewBox="0 0 512 512"><style>.st0{fill:#5A869C}</style><path d="M255.366 141.046c-7.4 3.583-14.732 8.548-21.533 15.357-34.091 34.098-65.081 65.088-65.081 65.088l.013.02c-.185.186-.371.338-.557.53-8.824 8.831-9.174 22.909-1.025 32.146.323.371.668.736 1.025 1.086 9.161 9.174 24.036 9.196 33.232 0l35.797-35.797c6.176 2.263 12.248 3.583 18.074 4.243 7.937.88 15.392.55 22.022-.385 16.162-2.29 14.47-1.623 23.844-4.704 9.353-3.068 19.862-9.354 19.862-9.354l6.362 6.355c.701.681 16.919 16.925 25.192 25.185 1.465 1.471 2.709 2.682 3.542 3.549.956.997 2.022 1.719 2.682 2.682l41.278 41.279c11.898-13.35 25.488-33.232 23.81-56.058L320.763 129.14s-35.701-2.551-65.397 11.906zM261.115 394.362c-9.134-9.147-23.961-9.147-33.101 0l-6.794 6.794c9.119-9.132 9.112-23.926-.021-33.066-9.14-9.126-23.947-9.126-33.087.007 9.14-9.133 9.14-23.94 0-33.087-9.133-9.148-23.947-9.133-33.087 0 9.14-9.133 9.14-23.947 0-33.095-9.134-9.132-23.947-9.132-33.088.014l-20.46 20.453c-9.14 9.147-9.14 23.947 0 33.094 9.133 9.134 23.941 9.134 33.08 0-9.14 9.134-9.14 23.947 0 33.087 9.147 9.133 23.954 9.133 33.094 0-9.14 9.133-9.14 23.941 0 33.088 9.14 9.133 23.947 9.133 33.088 0l6.802-6.809c-9.119 9.147-9.113 23.94.02 33.081 9.14 9.132 23.947 9.132 33.088 0l20.467-20.468c9.132-9.153 9.132-23.96-.001-33.093zM507.987 178.28 387.543 57.822c-5.351-5.337-14.002-5.337-19.339 0l-38.631 38.63c-5.337 5.337-5.337 13.989 0 19.333l120.458 120.451c5.33 5.35 13.996 5.35 19.326 0l38.63-38.638c5.351-5.322 5.351-13.974 0-19.318zm-34.332 26.712c-5.75 5.736-15.048 5.736-20.777 0-5.735-5.743-5.735-15.041 0-20.777 5.729-5.736 15.027-5.736 20.777 0 5.736 5.736 5.729 15.034 0 20.777zM182.417 99.864l-38.624-38.63c-5.336-5.337-13.995-5.337-19.332 0L4.003 181.691c-5.337 5.323-5.337 13.989 0 19.319l38.631 38.644c5.33 5.331 14.002 5.331 19.325 0l120.458-120.458c5.344-5.337 5.344-13.989 0-19.332zM59.118 208.403c-5.736 5.729-15.04 5.729-20.777 0-5.735-5.742-5.735-15.041 0-20.777 5.736-5.735 15.041-5.735 20.777 0 5.736 5.736 5.736 15.034 0 20.777z" class="st0"/><path d="m397.528 312.809-7.468-7.482-72.509-72.509-4.883 2.166-5.316 1.919-.384.117c-.936.296-9.684 2.971-26.932 5.412-9.12 1.273-18.156 1.431-26.904.434a100.27 100.27 0 0 1-10.296-1.692l-27.757 27.744c-16.678 16.678-43.836 16.678-60.514 0a43.273 43.273 0 0 1-1.671-1.781l-.179-.2c-10.529-11.939-13.204-28.28-8.252-42.461l10.673-16.609-.02-.02 65.081-65.074a104.644 104.644 0 0 1 8.314-7.428c-20.281-3.982-37.296-2.806-37.296-2.806L88.093 235.679c-1.389 18.988 11.651 39.799 20.928 51.952 16.692-15.963 43.239-15.756 59.641.654 6.107 6.1 9.952 13.617 11.574 21.498 7.895 1.637 15.406 5.475 21.513 11.582 6.107 6.114 9.952 13.631 11.575 21.519 7.888 1.623 15.412 5.46 21.513 11.568a42.199 42.199 0 0 1 9.222 13.817c11.1-.137 22.242 4.016 30.688 12.455 16.65 16.636 16.643 43.733 0 60.363l-6.809 6.822 3.411 3.412c9.148 9.147 23.954 9.147 33.095 0 9.14-9.134 9.14-23.947 0-33.088l6.808 6.83c9.147 9.133 23.947 9.133 33.087 0 9.14-9.147 9.147-23.954 0-33.101 9.147 9.147 23.947 9.147 33.087 0 9.134-9.126 9.154-23.94 0-33.088 9.154 9.148 23.954 9.148 33.088 0 9.147-9.132 9.147-23.947 0-33.08l-12.986-12.985z" class="st0"/></svg>