<svg fill="#5A869C"
                                xmlns="http://www.w3.org/2000/svg" width="80" height="80" viewBox="0 0 512 512"><path d="M226.932 399.948c-19.96 18.445-47.567 22.576-72.053 10.786-8.852-4.263-16.322-10.149-22.17-17.199l-33.341 73.744c-1.517 3.355.177 5.884.975 6.815.798.93 3.039 2.989 6.585 2.003l24.272-6.756a31.036 31.036 0 0 1 8.319-1.14 30.93 30.93 0 0 1 27.849 17.492l10.962 22.685c1.601 3.315 4.604 3.646 5.854 3.621 1.226-.016 4.242-.414 5.758-3.769l53.033-117.304a39.793 39.793 0 0 0-16.043 9.022zM412.631 467.279l-33.341-73.744c-5.848 7.051-13.318 12.937-22.17 17.199-24.487 11.79-52.093 7.659-72.053-10.786a39.787 39.787 0 0 0-16.045-9.022l53.033 117.304c1.517 3.356 4.533 3.753 5.758 3.769 1.25.025 4.253-.306 5.854-3.621l10.962-22.685a30.928 30.928 0 0 1 27.849-17.492c2.757 0 5.554.371 8.319 1.14l24.272 6.756c3.546.987 5.788-1.072 6.585-2.003.8-.932 2.494-3.461.977-6.815z"/><path d="M438.821 207.791c-27.69-18.96-36.282-56.605-19.56-85.702 10.051-17.491 4.82-34.775-3.427-45.118-8.248-10.34-23.936-19.285-43.223-13.38-32.084 9.827-66.877-6.925-79.201-38.141C286.002 6.686 269.227 0 256 0c-13.227 0-30.002 6.686-37.41 25.451-12.324 31.217-47.114 47.967-79.201 38.141-19.289-5.904-34.974 3.039-43.223 13.38-8.247 10.343-13.478 27.625-3.427 45.118 16.722 29.096 8.13 66.742-19.56 85.702-16.646 11.399-19.431 29.24-16.489 42.136 2.942 12.896 13.194 27.761 33.137 30.808 33.174 5.068 57.248 35.256 54.809 68.727-1.468 20.121 10.745 33.423 22.662 39.163 11.918 5.739 29.932 6.995 44.748-6.698 12.322-11.387 28.141-17.083 43.953-17.083 15.818 0 31.628 5.693 43.952 17.083 14.818 13.694 32.833 12.438 44.75 6.698 11.917-5.739 24.129-19.041 22.662-39.162-2.439-33.471 21.635-63.659 54.809-68.728 19.943-3.047 30.193-17.913 33.137-30.808 2.943-12.898.156-30.739-16.488-42.137zM256 335.923c-72.575 0-131.619-59.044-131.619-131.619S183.424 72.684 256 72.684s131.619 59.044 131.619 131.619c-.001 72.575-59.044 131.62-131.619 131.62z"/><path d="M255.999 97.225c-59.044 0-107.079 48.036-107.079 107.079 0 59.043 48.034 107.079 107.079 107.079s107.079-48.036 107.079-107.079S315.043 97.225 255.999 97.225zm54.875 96.697-66.642 48.675a12.27 12.27 0 0 1-17.279-2.856l-19.934-28.382c-3.895-5.547-2.556-13.2 2.989-17.095 5.546-3.895 13.198-2.557 17.094 2.989l12.75 18.154 56.548-41.302c5.473-3.995 13.15-2.803 17.146 2.671 3.997 5.472 2.8 13.148-2.672 17.146z"/></svg>