<svg class="w-20 h-20 mx-auto bg-primary/40 rounded-full p-3" fill="#5A869C"
                            xmlns="http://www.w3.org/2000/svg" width="80" height="80" viewBox="0 0 48 48">
                            <g data-name="Layer 2">
                                <path fill="none" d="M0 0h48v48H0z" data-name="invisible box" />
                                <path
                                    d="M24 2S6 7.1 6 8v18.2c0 9.2 13.3 17.3 17 19.5a1.8 1.8 0 0 0 2 0c3.8-2.1 17-10.3 17-19.5V8c0-.9-18-6-18-6Zm5 23h-4l3.1 9.2a.5.5 0 0 1-.9.6l-8.9-12.1A1 1 0 0 1 19 21h4l-3.1-9.2a.5.5 0 0 1 .9-.6l8.9 12.1A1 1 0 0 1 29 25Z"
                                    data-name="icons Q2" />
                            </g>
                        </svg>